HIERARCHY
ROOT Hips
{
    OFFSET 0.0 0.0 0.0
    CHANNELS 6 Xposition Yposition Zposition Zrotation Xrotation Yrotation
    JOINT LeftHipJoint
    {
        OFFSET 0.1 0.0 0.0
        CHANNELS 3 Zrotation Xrotation Yrotation
        JOINT LeftUpLeg
        {
            OFFSET 122.75026672719969 0.0 0.0
            CHANNELS 3 Zrotation Xrotation Yrotation
            JOINT LeftLeg
            {
                OFFSET 0.0 0.0 -396.64868163931817
                CHANNELS 3 Zrotation Xrotation Yrotation
                JOINT LeftFoot
                {
                    OFFSET 0.0 0.0 -379.65772533760054
                    CHANNELS 3 Zrotation Xrotation Yrotation
                    End Site
                    {
                        OFFSET 0.0 -0.1 0.0
                    }
                }
            }
        }
    }
    JOINT LowerBack
    {
        OFFSET 0.0 0.0 0.1
        CHANNELS 3 Zrotation Xrotation Yrotation
        JOINT Spine
        {
            OFFSET 0.0 0.0 218.64950983632795
            CHANNELS 3 Zrotation Xrotation Yrotation
            JOINT Spine1
            {
                OFFSET 0.0 0.0 251.4894215651222
                CHANNELS 3 Zrotation Xrotation Yrotation
                JOINT LeftShoulder
                {
                    OFFSET 0.1 0.0 0.0
                    CHANNELS 3 Zrotation Xrotation Yrotation
                    JOINT LeftArm
                    {
                        OFFSET 140.57440810036624 0.0 0.0
                        CHANNELS 3 Zrotation Xrotation Yrotation
                        JOINT LeftForeArm
                        {
                            OFFSET 260.88308147968974 0.0 0.0
                            CHANNELS 3 Zrotation Xrotation Yrotation
                            JOINT LeftHand
                            {
                                OFFSET 243.63870120206263 0.0 0.0
                                CHANNELS 3 Zrotation Xrotation Yrotation
                                End Site
                                {
                                    OFFSET 0.1 0.0 0.0
                                }
                            }
                        }
                    }
                }
                JOINT Neck
                {
                    OFFSET 0.0 0.0 0.1
                    CHANNELS 3 Zrotation Xrotation Yrotation
                    JOINT Neck1
                    {
                        OFFSET 0.0 0.0 105.92312184526637
                        CHANNELS 3 Zrotation Xrotation Yrotation
                        End Site
                        {
                            OFFSET 0.0 0.0 116.08876874627452
                        }
                    }
                }
                JOINT RightShoulder
                {
                    OFFSET -0.1 0.0 0.0
                    CHANNELS 3 Zrotation Xrotation Yrotation
                    JOINT RightArm
                    {
                        OFFSET -140.57440810036624 0.0 0.0
                        CHANNELS 3 Zrotation Xrotation Yrotation
                        JOINT RightForeArm
                        {
                            OFFSET -260.88308147968974 0.0 0.0
                            CHANNELS 3 Zrotation Xrotation Yrotation
                            JOINT RightHand
                            {
                                OFFSET -243.63870120206263 0.0 0.0
                                CHANNELS 3 Zrotation Xrotation Yrotation
                                End Site
                                {
                                    OFFSET -0.1 0.0 0.0
                                }
                            }
                        }
                    }
                }
            }
        }
    }
    JOINT RightHipJoint
    {
        OFFSET -0.1 0.0 0.0
        CHANNELS 3 Zrotation Xrotation Yrotation
        JOINT RightUpLeg
        {
            OFFSET -122.75026672719969 0.0 0.0
            CHANNELS 3 Zrotation Xrotation Yrotation
            JOINT RightLeg
            {
                OFFSET 0.0 0.0 -396.64868163931817
                CHANNELS 3 Zrotation Xrotation Yrotation
                JOINT RightFoot
                {
                    OFFSET 0.0 0.0 -379.65772533760054
                    CHANNELS 3 Zrotation Xrotation Yrotation
                    End Site
                    {
                        OFFSET 0.0 -0.1 0.0
                    }
                }
            }
        }
    }
}
MOTION
Frames: 7
Frame Time: 0.03333333333333333
0.0 0.0 771.2803430653244 21.511075043584444 3.8506590747049 1.3868778064315552 0.0 0.0 -1.987846675914698e-16 0.23073262783100204 -23.840109463351514 4.3721028409121585 1.4773150990361499 21.204683087959854 -0.8380979356566111 0.0 0.0 2.2363275104040355e-16 0.0 0.0 -1.987846675914698e-16 -0.03433086942999341 3.774662565247029 1.5742311607472572 1.2443122847354988 -2.31150377971996e-16 -2.9794357288687002e-15 0.0 0.0 -3.975693351829396e-16 -36.26011346307612 2.5229411213357396 72.79298963016953 -27.39143313015833 -4.502082018330838e-15 5.040931981737866e-15 0.0 0.0 -1.987846675914698e-16 0.0 0.0 -3.975693351829396e-16 -2.228930346713489 2.01911421922703 -4.571423272997349 0.0 0.0 -3.975693351829396e-16 27.25472971941992 -4.302271419165554 -72.76990297639233 37.618658809437086 -1.8195654647318544e-14 -1.396232116118408e-14 0.0 0.0 7.951386703658792e-16 0.0 0.0 -1.987846675914698e-16 0.20205353163744671 -21.290450248444 0.8087718636158472 0.1010732159880667 21.878391240005215 -1.0266741126944021 -3.1805546814635168e-15 5.517382872562698e-33 -1.987846675914698e-16
0.0 0.0 771.2803430653244 21.399559688949836 3.9772361292350404 1.379868159834281 0.0 0.0 9.93923337957349e-17 0.23819477224399827 -24.085783398645738 4.485362435602638 1.5264195571974386 21.331402220088165 -1.0304643670904499 0.0 0.0 -2.4848083448933725e-17 0.0 0.0 9.93923337957349e-17 -0.035045320002766 3.7753850661971997 1.5444591340019784 1.1451189796323507 -1.1946348852444396e-15 -1.8685615196374157e-16 0.0 0.0 -3.975693351829396e-16 -36.369158583728556 2.470366819218709 72.82626242771127 -27.114559445707386 4.5830862440864825e-15 -5.4382865765020796e-15 6.620859447075238e-32 3.1805546814635168e-15 -2.3854160110976376e-15 0.0 0.0 -3.975693351829396e-16 -2.213906014338328 1.9042159375893934 -4.570127172310779 0.0 0.0 -3.975693351829396e-16 27.009641895521234 -4.230045967705912 -72.68426250898446 38.06696215442482 -7.050580309112733e-15 -9.321790137356907e-16 0.0 0.0 0.0 0.0 0.0 9.93923337957349e-17 0.20765635349790104 -21.422753377581305 0.876717496739726 0.12345953158042573 21.866715505733314 -1.0708727731783976 0.0 0.0 0.0
0.0 0.0 771.2803430653244 21.286569156408124 4.019837077523396 1.4286436059814596 0.0 0.0 -1.987846675914698e-16 0.2300608823771429 -24.075048996767563 4.48923416893247 1.544366874498157 21.441060977620896 -1.1656621196688737 0.0 0.0 -1.0560435465796832e-15 0.0 0.0 -1.987846675914698e-16 -0.03470339918453778 3.869313868478171 1.4800974667754425 1.0142315806415168 7.968669143938081e-16 1.917393280606789e-16 -3.1805546814635168e-15 -7.951386703658792e-16 1.9878466759146977e-16 -36.33602945155034 2.3204377960567166 72.84593098076697 -26.800227128965265 7.977206615979532e-15 -1.976042784587684e-14 0.0 0.0 1.3914926731402886e-15 -3.1805546814635168e-15 -7.951386703658792e-16 1.9878466759146977e-16 -2.018153525711741 1.79175267741415 -4.569406645078259 -3.1805546814635168e-15 -7.951386703658792e-16 1.9878466759146977e-16 26.77413934147072 -4.016785920828486 -72.6145917517984 38.56516944185664 1.020548639009032e-14 9.907906397280459e-15 0.0 0.0 -2.3854160110976376e-15 0.0 0.0 -1.987846675914698e-16 0.2002594427498573 -21.391784436640535 0.8675430909270415 0.1279050164356334 21.916727196360117 -1.1351870097716592 0.0 0.0 -4.969616689786745e-16
0.0 0.0 771.2803430653244 21.114836769846193 4.294530608396071 1.5279036050224402 0.0 0.0 1.987846675914698e-16 0.20894826312255593 -24.49304478096021 4.453543698827924 1.5703966116862984 21.648151506360236 -1.2089340017728416 0.0 0.0 3.1060104311167157e-16 0.0 0.0 1.987846675914698e-16 -0.030708110851455646 3.843874677620319 1.3717564726490048 0.8940297692345038 -1.0249106622803166e-16 -3.967817960020452e-16 0.0 0.0 -1.987846675914698e-16 -36.25638670181652 2.1850584597569114 72.81725861289002 -26.663893528638486 -2.2697522397399337e-15 -4.2151066807943575e-15 1.1034765745125397e-32 3.1805546814635176e-15 -3.975693351829397e-16 0.0 0.0 -1.987846675914698e-16 -1.9620579104025593 1.5834101835286765 -4.6765796048221056 0.0 0.0 -1.987846675914698e-16 26.63993094907037 -3.725776100568186 -72.46788408482904 39.27125012886488 -8.12877226693116e-15 -3.8536328427351264e-15 0.0 0.0 7.951386703658792e-16 0.0 0.0 1.987846675914698e-16 0.1819519553942158 -21.778958619106614 0.8135446470298076 0.13123368591303275 22.12467287243327 -1.1867516452325695 0.0 0.0 -1.987846675914698e-16
0.0 0.0 771.2803430653244 21.02239779494141 4.4708322250070704 1.5876362112299045 0.0 0.0 0.0 0.20010875964433533 -24.71448639995324 4.441832030723455 1.5781260227623057 21.67673310808788 -1.251591023927537 0.0 0.0 -1.1181637552020177e-16 0.0 0.0 0.0 -0.029183015847808882 3.854026280802176 1.3229710422855827 0.7760186285026999 -9.939005471206085e-17 6.730837216396327e-19 0.0 0.0 -1.987846675914698e-16 -36.34745100686409 2.034003090246086 72.74591385205129 -26.409493267095602 3.269425301203819e-15 -1.3934073412175027e-14 0.0 0.0 -2.981770013872047e-16 0.0 0.0 -1.987846675914698e-16 -1.8261968127042807 1.411776645497531 -4.7936164994030825 0.0 0.0 -1.987846675914698e-16 26.39810942568913 -3.475111266896274 -72.43237437454286 40.08033731355109 -2.1798176699704718e-15 -5.9759607807282725e-15 0.0 0.0 -2.3854160110976376e-15 0.0 0.0 0.0 0.17409427688651907 -21.96882031002805 0.7001797928537468 0.09527288026250945 22.11083213634466 -1.0595861753276001 0.0 0.0 -1.987846675914698e-16
0.0 0.0 771.2803430653244 20.96805895103758 4.543648937265523 1.6300986521786645 -2.586273221513765e-34 -4.969616689786745e-17 -5.963540027744094e-16 0.19371571879502333 -24.780985230212305 4.435323941116166 1.5824216161876605 21.680951143917873 -1.292918820360628 0.0 0.0 -3.7272125173400585e-16 -2.586273221513765e-34 -4.969616689786745e-17 -5.963540027744094e-16 -0.028384904479464883 3.8843302477077444 1.2685978018122475 0.6665507070282914 -8.093922473249179e-18 -1.3914691329030995e-15 0.0 0.0 0.0 -36.253092795159695 2.0619110229397157 72.82973123937138 -26.179239983075412 3.331459900172078e-15 -1.4327853958561274e-14 3.1805546814635176e-15 2.344887720839147e-32 8.448348372637468e-16 0.0 0.0 0.0 -1.7234882430778697 1.3177065042150398 -4.861012999940974 0.0 0.0 0.0 26.1429902372549 -3.1069056380556375 -72.52581042717742 40.83791199642521 1.1096386692907516e-15 2.9807096647265303e-15 0.0 0.0 1.5902773407317584e-15 -2.586273221513765e-34 -4.969616689786745e-17 -5.963540027744094e-16 0.16894772757453178 -22.080950304214664 0.645619672664709 0.07980268318467919 22.161399809968124 -1.1355802255743657 0.0 0.0 -9.93923337957349e-17
0.0 0.0 771.2803430653244 20.95441981017415 4.573522678730952 1.6651456693030349 -3.1805546814635168e-15 -7.951386703658792e-16 -3.975693351829396e-16 0.19792830716090007 -24.96858965490614 4.440830318789865 1.5946688807831753 21.839347624028843 -1.3623508486540008 0.0 0.0 -2.7332891793827095e-16 -3.1805546814635168e-15 -7.951386703658792e-16 -3.975693351829396e-16 -0.02865425491712288 3.8705725694412325 1.2356432739866452 0.602255865870392 1.2826798109034794e-15 -1.795828126314005e-15 0.0 0.0 0.0 -36.21440118471514 2.1105524289249464 72.90018925021904 -26.002053288421124 -8.255182294027492e-15 7.47864597841425e-15 0.0 0.0 4.969616689786745e-17 0.0 0.0 0.0 -1.6333758244230376 1.2114501637531316 -5.02061563401582 0.0 0.0 0.0 26.058326275488604 -2.79646867568763 -72.40025070700604 41.68425220805961 2.549997342794905e-15 -1.1180544647505877e-14 0.0 0.0 0.0 -3.1805546814635168e-15 -7.951386703658792e-16 -3.975693351829396e-16 0.1731670412787703 -22.312921770633658 0.5786164963049494 0.05027460604509093 22.345082342143186 -1.0269879374547768 0.0 0.0 9.93923337957349e-17
